<svg width="65" height="50" viewBox="0 0 65 50" fill="none" xmlns="http://www.w3.org/2000/svg">
<path d="M45.9459 35.4167H45.973M47.027 29.1667H48.6486C51.1672 29.1667 52.4265 29.1667 53.4199 29.4838C54.7444 29.9067 55.7967 30.7179 56.3453 31.7388C56.7567 32.5045 56.7567 33.4752 56.7567 35.4167C56.7567 37.3581 56.7567 38.3288 56.3453 39.0945C55.7967 40.1155 54.7444 40.9266 53.4199 41.3495C52.4265 41.6667 51.1672 41.6667 48.6486 41.6667H16.2162C13.6976 41.6667 12.4383 41.6667 11.4449 41.3495C10.1205 40.9266 9.06817 40.1155 8.51956 39.0945C8.10809 38.3288 8.10809 37.3581 8.10809 35.4167C8.10809 33.4752 8.10809 32.5045 8.51956 31.7388C9.06817 30.7179 10.1205 29.9067 11.4449 29.4838C12.4383 29.1667 13.6976 29.1667 16.2162 29.1667H17.8378M32.4324 31.25V8.33333M32.4324 31.25L24.3243 25M32.4324 31.25L40.5405 25" stroke="white" stroke-width="2" stroke-linecap="round" stroke-linejoin="round"/>
</svg>
