<svg width="726" height="590" viewBox="0 0 726 590" fill="none" xmlns="http://www.w3.org/2000/svg">
<g filter="url(#filter0_df_152_21)">
<path d="M276.104 449L141 241.36L440.685 141L585 348.064L276.104 449Z" fill="#424242" fill-opacity="0.5" shape-rendering="crispEdges"/>
</g>
<g filter="url(#filter1_df_152_21)">
<path d="M356.248 257.998L377.051 211L398.686 257.998H450L398.686 298.395L429.197 338L377.051 318.198L323.518 338L351.255 298.395L298 257.998H356.248Z" fill="url(#paint0_linear_152_21)" shape-rendering="crispEdges"/>
<path d="M356.248 257.998L377.051 211L398.686 257.998H450L398.686 298.395L429.197 338L377.051 318.198L323.518 338L351.255 298.395L298 257.998H356.248Z" fill="url(#paint1_linear_152_21)" shape-rendering="crispEdges"/>
<path d="M356.248 257.998L377.051 211L398.686 257.998H450L398.686 298.395L429.197 338L377.051 318.198L323.518 338L351.255 298.395L298 257.998H356.248Z" fill="url(#paint2_linear_152_21)" shape-rendering="crispEdges"/>
</g>
<defs>
<filter id="filter0_df_152_21" x="0" y="0" width="726" height="590" filterUnits="userSpaceOnUse" color-interpolation-filters="sRGB">
<feFlood flood-opacity="0" result="BackgroundImageFix"/>
<feColorMatrix in="SourceAlpha" type="matrix" values="0 0 0 0 0 0 0 0 0 0 0 0 0 0 0 0 0 0 127 0" result="hardAlpha"/>
<feOffset dy="4"/>
<feGaussianBlur stdDeviation="2"/>
<feComposite in2="hardAlpha" operator="out"/>
<feColorMatrix type="matrix" values="0 0 0 0 0 0 0 0 0 0 0 0 0 0 0 0 0 0 0.25 0"/>
<feBlend mode="normal" in2="BackgroundImageFix" result="effect1_dropShadow_152_21"/>
<feBlend mode="normal" in="SourceGraphic" in2="effect1_dropShadow_152_21" result="shape"/>
<feGaussianBlur stdDeviation="70.5" result="effect2_foregroundBlur_152_21"/>
</filter>
<filter id="filter1_df_152_21" x="237" y="150" width="274" height="249" filterUnits="userSpaceOnUse" color-interpolation-filters="sRGB">
<feFlood flood-opacity="0" result="BackgroundImageFix"/>
<feColorMatrix in="SourceAlpha" type="matrix" values="0 0 0 0 0 0 0 0 0 0 0 0 0 0 0 0 0 0 127 0" result="hardAlpha"/>
<feOffset dy="4"/>
<feGaussianBlur stdDeviation="2"/>
<feComposite in2="hardAlpha" operator="out"/>
<feColorMatrix type="matrix" values="0 0 0 0 0 0 0 0 0 0 0 0 0 0 0 0 0 0 0.25 0"/>
<feBlend mode="normal" in2="BackgroundImageFix" result="effect1_dropShadow_152_21"/>
<feBlend mode="normal" in="SourceGraphic" in2="effect1_dropShadow_152_21" result="shape"/>
<feGaussianBlur stdDeviation="30.5" result="effect2_foregroundBlur_152_21"/>
</filter>
<linearGradient id="paint0_linear_152_21" x1="374" y1="211" x2="374" y2="338" gradientUnits="userSpaceOnUse">
<stop stop-color="#B16CEA"/>
<stop offset="1" stop-color="#B16CEA" stop-opacity="0"/>
</linearGradient>
<linearGradient id="paint1_linear_152_21" x1="374" y1="211" x2="374" y2="338" gradientUnits="userSpaceOnUse">
<stop stop-color="#FF8A56" stop-opacity="0"/>
<stop offset="1" stop-color="#FF8A56"/>
</linearGradient>
<linearGradient id="paint2_linear_152_21" x1="319.635" y1="274.368" x2="431.416" y2="274.368" gradientUnits="userSpaceOnUse">
<stop stop-color="#FF5E69" stop-opacity="0"/>
<stop offset="1" stop-color="#FF5E69"/>
</linearGradient>
</defs>
</svg>
