<svg width="80" height="80" viewBox="0 0 80 80" fill="none" xmlns="http://www.w3.org/2000/svg">
<g id="figma">
<g id="figma_2">
<path id="Vector" d="M26.6663 80.0001C34.0263 80.0001 39.9997 74.0268 39.9997 66.6668V53.3335H26.6663C19.3063 53.3335 13.333 59.3068 13.333 66.6668C13.333 74.0268 19.3063 80.0001 26.6663 80.0001Z" fill="#0ACF83"/>
<path id="Vector_2" d="M13.333 39.9998C13.333 32.6398 19.3063 26.6665 26.6663 26.6665H39.9997V53.3331H26.6663C19.3063 53.3331 13.333 47.3598 13.333 39.9998Z" fill="#A259FF"/>
<path id="Vector_3" d="M13.333 13.3333C13.333 5.97333 19.3063 0 26.6663 0H39.9997V26.6667H26.6663C19.3063 26.6667 13.333 20.6933 13.333 13.3333Z" fill="#F24E1E"/>
<path id="Vector_4" d="M40 0H53.3334C60.6934 0 66.6667 5.97333 66.6667 13.3333C66.6667 20.6933 60.6934 26.6667 53.3334 26.6667H40V0Z" fill="#FF7262"/>
<path id="Vector_5" d="M66.6667 39.9998C66.6667 47.3598 60.6934 53.3331 53.3334 53.3331C45.9733 53.3331 40 47.3598 40 39.9998C40 32.6398 45.9733 26.6665 53.3334 26.6665C60.6934 26.6665 66.6667 32.6398 66.6667 39.9998Z" fill="#1ABCFE"/>
</g>
</g>
</svg>
