<svg width="62" height="62" viewBox="0 0 62 62" fill="none" xmlns="http://www.w3.org/2000/svg">
<rect x="3.875" y="3.875" width="54.25" height="54.25" fill="#FFCA28"/>
<path d="M36.8125 48.9948L40.8067 46.3519C41.1197 47.3353 43.1019 49.6709 45.6058 49.6709C48.1096 49.6709 49.2721 48.3034 49.2721 47.3968C49.2721 44.9261 46.7154 44.0549 45.4874 43.6366C45.2872 43.5684 45.1223 43.5122 45.0096 43.4631C44.9518 43.4379 44.8644 43.4045 44.7521 43.3616C43.3864 42.8398 38.3476 40.9147 38.3476 35.3345C38.3476 29.1881 44.2793 28.4812 45.6207 28.4812C46.4982 28.4812 50.7178 28.5888 52.8192 32.5379L48.9442 35.2423C48.0947 33.5213 46.6833 32.9527 45.8144 32.9527C43.6683 32.9527 43.2212 34.5261 43.2212 35.2423C43.2212 37.2519 45.5529 38.1526 47.5217 38.9131C48.0368 39.1121 48.5271 39.3015 48.9442 39.4986C51.0904 40.5128 54.25 42.1723 54.25 47.3968C54.25 50.0135 52.0552 54.25 46.5298 54.25C39.1077 54.25 37.1404 49.7939 36.8125 48.9948Z" fill="#3E3E3E"/>
<path d="M17.4375 49.5197L21.6006 46.878C21.9268 47.861 23.1943 49.6732 25.0335 49.6732C26.8727 49.6732 27.8141 47.7842 27.8141 46.878V29.0625H32.934V46.878C33.0169 49.3354 31.654 54.25 25.6393 54.25C20.1093 54.25 17.8103 50.9633 17.4375 49.5197Z" fill="#3E3E3E"/>
</svg>
