<svg width="81" height="80" viewBox="0 0 81 80" fill="none" xmlns="http://www.w3.org/2000/svg">
<g id="js">
<g id="js_2">
<path id="Vector" d="M80.1748 0H0.174805V80H80.1748V0Z" fill="#F7DF1E"/>
<path id="Vector_2" d="M53.9143 62.5005C55.5258 65.1316 57.6223 67.0656 61.3302 67.0656C64.4451 67.0656 66.435 65.5088 66.435 63.3577C66.435 60.7799 64.3905 59.8669 60.9619 58.3672L59.0826 57.5609C53.6578 55.2497 50.054 52.3545 50.054 46.2339C50.054 40.5958 54.3499 36.3037 61.0635 36.3037C65.8432 36.3037 69.2794 37.9672 71.7556 42.3228L65.9016 46.0815C64.6127 43.7704 63.2223 42.8599 61.0635 42.8599C58.8616 42.8599 57.4661 44.2567 57.4661 46.0815C57.4661 48.3367 58.8629 49.2497 62.0883 50.6466L63.9677 51.4516C70.355 54.1907 73.9613 56.9831 73.9613 63.2612C73.9613 70.0294 68.6445 73.7374 61.5042 73.7374C54.5226 73.7374 50.0121 70.4104 47.8051 66.0497L53.9143 62.5005ZM27.3581 63.152C28.5391 65.2472 29.6134 67.0186 32.1962 67.0186C34.6661 67.0186 36.2242 66.0523 36.2242 62.2948V36.7329H43.7416V62.3964C43.7416 70.1805 39.1778 73.7234 32.5162 73.7234C26.4972 73.7234 23.0115 70.6085 21.2388 66.8567L27.3581 63.152Z" fill="black"/>
</g>
</g>
</svg>
