<svg width="70" height="70" viewBox="0 0 70 70" fill="none" xmlns="http://www.w3.org/2000/svg">
<circle cx="35" cy="35" r="35" fill="#FF5E69"/>
<circle cx="35" cy="35" r="35" fill="url(#paint0_linear_7_82)"/>
<circle cx="35" cy="35" r="35" fill="url(#paint1_linear_7_82)" fill-opacity="0.5"/>
<path d="M35.884 44.442C35.728 44.078 35.6067 43.6187 35.52 43.064C35.4333 42.5093 35.3813 41.9373 35.364 41.348C35.3467 40.7413 35.364 40.1607 35.416 39.606C35.4853 39.0513 35.5807 38.592 35.702 38.228C35.962 38.124 36.2133 37.9507 36.456 37.708C36.716 37.448 36.9327 37.0407 37.106 36.486C37.2793 35.914 37.366 35.1167 37.366 34.094C37.366 32.9847 37.262 32.1527 37.054 31.598C36.8633 31.026 36.6293 30.6447 36.352 30.454C36.092 30.246 35.858 30.142 35.65 30.142C35.494 29.83 35.3813 29.4053 35.312 28.868C35.2427 28.3307 35.208 27.7587 35.208 27.152C35.2253 26.528 35.2773 25.93 35.364 25.358C35.4507 24.7687 35.5807 24.266 35.754 23.85C37.0367 23.902 38.1893 23.9107 39.212 23.876C40.252 23.8413 41.2833 23.7893 42.306 23.72C43.346 23.6507 44.4727 23.59 45.686 23.538C46.9167 23.4687 48.364 23.434 50.028 23.434C52.472 23.434 54.552 23.6507 56.268 24.084C58.0013 24.5 59.3273 25.2453 60.246 26.32C61.1647 27.3947 61.6153 28.92 61.598 30.896C61.598 31.9013 61.4333 32.8113 61.104 33.626C60.792 34.4233 60.3327 35.0993 59.726 35.654C60.0727 36.3473 60.4713 36.902 60.922 37.318C61.3727 37.734 61.7973 38.0373 62.196 38.228C62.3173 38.592 62.3953 39.0513 62.43 39.606C62.482 40.1607 62.4993 40.7413 62.482 41.348C62.482 41.9373 62.4387 42.5093 62.352 43.064C62.2653 43.6187 62.1527 44.078 62.014 44.442C61.6327 44.39 61.1993 44.3293 60.714 44.26C60.246 44.208 59.6827 44.156 59.024 44.104C58.3653 44.052 57.5507 44.026 56.58 44.026C55.28 44.026 54.2053 44.052 53.356 44.104C52.524 44.156 51.822 44.208 51.25 44.26C50.6953 44.3293 50.1927 44.39 49.742 44.442C49.9327 43.038 50.0193 41.8073 50.002 40.75C50.002 39.6927 49.8547 38.7653 49.56 37.968C49.2653 37.1707 48.7627 36.46 48.052 35.836V38.228L48.988 38.254C49.144 38.8433 49.2307 39.528 49.248 40.308C49.2827 41.0707 49.2567 41.8247 49.17 42.57C49.1007 43.298 48.9793 43.9133 48.806 44.416C48.078 44.3467 47.1247 44.26 45.946 44.156C44.7673 44.052 43.4847 44.0087 42.098 44.026C40.8847 44.0433 39.7233 44.0953 38.614 44.182C37.5047 44.286 36.5947 44.3727 35.884 44.442ZM47.948 33.054H49.534V31.26H47.948V33.054Z" fill="white"/>
<path d="M5.884 44.442C5.728 44.078 5.60667 43.6187 5.52 43.064C5.43333 42.5093 5.38133 41.9373 5.364 41.348C5.34667 40.7413 5.364 40.1607 5.416 39.606C5.48533 39.0513 5.58067 38.592 5.702 38.228C5.962 38.124 6.21333 37.9507 6.456 37.708C6.716 37.448 6.93267 37.0407 7.106 36.486C7.27933 35.914 7.366 35.1167 7.366 34.094C7.366 32.9847 7.262 32.1527 7.054 31.598C6.86333 31.026 6.62933 30.6447 6.352 30.454C6.092 30.246 5.858 30.142 5.65 30.142C5.494 29.83 5.38133 29.4053 5.312 28.868C5.24267 28.3307 5.208 27.7587 5.208 27.152C5.22533 26.528 5.27733 25.93 5.364 25.358C5.45067 24.7687 5.58067 24.266 5.754 23.85C7.03667 23.902 8.18933 23.9107 9.212 23.876C10.252 23.8413 11.2833 23.7893 12.306 23.72C13.346 23.6507 14.4727 23.59 15.686 23.538C16.9167 23.4687 18.364 23.434 20.028 23.434C22.472 23.434 24.552 23.6507 26.268 24.084C28.0013 24.5 29.3273 25.2453 30.246 26.32C31.1647 27.3947 31.6153 28.92 31.598 30.896C31.598 31.9013 31.4333 32.8113 31.104 33.626C30.792 34.4233 30.3327 35.0993 29.726 35.654C30.0727 36.3473 30.4713 36.902 30.922 37.318C31.3727 37.734 31.7973 38.0373 32.196 38.228C32.3173 38.592 32.3953 39.0513 32.43 39.606C32.482 40.1607 32.4993 40.7413 32.482 41.348C32.482 41.9373 32.4387 42.5093 32.352 43.064C32.2653 43.6187 32.1527 44.078 32.014 44.442C31.6327 44.39 31.1993 44.3293 30.714 44.26C30.246 44.208 29.6827 44.156 29.024 44.104C28.3653 44.052 27.5507 44.026 26.58 44.026C25.28 44.026 24.2053 44.052 23.356 44.104C22.524 44.156 21.822 44.208 21.25 44.26C20.6953 44.3293 20.1927 44.39 19.742 44.442C19.9327 43.038 20.0193 41.8073 20.002 40.75C20.002 39.6927 19.8547 38.7653 19.56 37.968C19.2653 37.1707 18.7627 36.46 18.052 35.836V38.228L18.988 38.254C19.144 38.8433 19.2307 39.528 19.248 40.308C19.2827 41.0707 19.2567 41.8247 19.17 42.57C19.1007 43.298 18.9793 43.9133 18.806 44.416C18.078 44.3467 17.1247 44.26 15.946 44.156C14.7673 44.052 13.4847 44.0087 12.098 44.026C10.8847 44.0433 9.72333 44.0953 8.614 44.182C7.50467 44.286 6.59467 44.3727 5.884 44.442ZM17.948 33.054H19.534V31.26H17.948V33.054Z" fill="white"/>
<defs>
<linearGradient id="paint0_linear_7_82" x1="35" y1="0" x2="35" y2="70" gradientUnits="userSpaceOnUse">
<stop stop-color="#B16CEA"/>
<stop offset="1" stop-color="#B16CEA" stop-opacity="0"/>
</linearGradient>
<linearGradient id="paint1_linear_7_82" x1="35" y1="0" x2="35" y2="70" gradientUnits="userSpaceOnUse">
<stop stop-color="#FF8A56" stop-opacity="0"/>
<stop offset="0.984" stop-color="#FF8A56"/>
</linearGradient>
</defs>
</svg>
