<svg width="62" height="62" viewBox="0 0 62 62" fill="none" xmlns="http://www.w3.org/2000/svg">
<path d="M36.1903 30.9533C36.1903 28.1741 33.8667 25.9209 31 25.9209C28.1336 25.9209 25.8097 28.1741 25.8097 30.9533C25.8097 33.7328 28.1336 35.986 31 35.986C33.8667 35.986 36.1903 33.7328 36.1903 30.9533Z" fill="#53C1DE"/>
<path fill-rule="evenodd" clip-rule="evenodd" d="M47.857 21.6103C48.9531 17.2918 50.3309 9.28349 45.4739 6.56844C40.6397 3.86521 34.3489 9.04507 31.027 12.1543C27.7148 9.07606 21.2473 3.91833 16.3944 6.64201C11.562 9.3543 13.0522 17.2298 14.1726 21.5754C9.66485 22.8168 1.9375 25.4905 1.9375 30.9533C1.9375 36.4006 9.65681 39.3095 14.1379 40.5497C13.0134 44.9194 11.5978 52.6824 16.4363 55.3886C21.3072 58.1118 27.7547 53.0768 31.1073 49.9337C34.4504 53.0611 40.6809 58.129 45.5161 55.4153C50.3666 52.6928 49.1032 44.7919 47.9827 40.421C52.3266 39.1782 60.0625 36.3326 60.0625 30.9533C60.0625 25.543 52.2938 22.8475 47.857 21.6103ZM47.3065 38.1047C46.5708 35.8468 45.5778 33.4457 44.3631 30.9653C45.5225 28.5435 46.4769 26.1733 47.192 23.9298C50.4445 24.8441 57.5796 26.9338 57.5796 30.9533C57.5796 35.0106 50.7327 37.12 47.3065 38.1047ZM44.2718 53.3317C40.6643 55.3563 35.3054 50.5099 32.8364 48.2067C34.4743 46.4698 36.1111 44.4506 37.7086 42.2083C40.5187 41.9667 43.1734 41.5713 45.5809 41.0319C46.3695 44.1235 47.8954 51.2978 44.2718 53.3317ZM17.677 53.3027C14.069 51.2857 15.7181 44.3583 16.5454 41.1396C18.9262 41.6502 21.5616 42.0175 24.3784 42.239C25.9864 44.4331 27.6705 46.4499 29.3678 48.216C27.2708 50.1827 21.3019 55.3292 17.677 53.3027ZM4.42038 30.9533C4.42038 26.8808 11.5128 24.8064 14.8394 23.8944C15.5669 26.1883 16.521 28.5866 17.6724 31.0119C16.5061 33.4734 15.5383 35.9099 14.8041 38.2307C11.6322 37.3504 4.42038 35.0283 4.42038 30.9533ZM17.6384 8.72561C21.2612 6.69244 26.8823 11.644 29.287 13.8728C27.5985 15.6309 25.9298 17.6324 24.3357 19.8138C21.602 20.0594 18.9851 20.454 16.5794 20.9825C15.6768 17.4776 14.0196 10.7566 17.6384 8.72561ZM39.4848 22.4306C41.3395 22.6576 43.1163 22.9594 44.7847 23.3288C44.2839 24.8853 43.6596 26.513 42.9244 28.1816C41.8585 26.2207 40.7144 24.2994 39.4848 22.4306ZM31.0278 15.5932C32.173 16.7961 33.3201 18.1395 34.4483 19.5968C32.1596 19.4919 29.8672 19.4914 27.5784 19.5953C28.7077 18.1514 29.8645 16.8101 31.0278 15.5932ZM19.097 28.1798C18.3739 26.517 17.7552 24.8821 17.25 23.3033C18.9084 22.9434 20.6769 22.6494 22.5196 22.4261C21.2866 24.2908 20.1444 26.2114 19.097 28.1798ZM22.5726 39.6524C20.669 39.4463 18.8737 39.1672 17.2158 38.8173C17.729 37.2106 18.3613 35.5405 19.0998 33.842C20.1617 35.8307 21.3212 37.7701 22.5726 39.6524ZM31.0965 46.4835C29.9196 45.2522 28.7458 43.8904 27.5993 42.4256C29.9011 42.5133 32.2073 42.5135 34.5088 42.4139C33.3769 43.9053 32.234 45.2691 31.0965 46.4835ZM42.948 33.7555C43.7249 35.4724 44.3798 37.1335 44.9 38.7131C43.2145 39.0859 41.3951 39.3862 39.4779 39.6092C40.7166 37.7052 41.8788 35.7539 42.948 33.7555ZM36.3228 39.901C32.8021 40.1449 29.2593 40.1423 25.7374 39.921C23.7361 37.0866 21.9547 34.1057 20.4169 31.0112C21.9471 27.923 23.7157 24.9481 25.7075 22.1181C29.2321 21.8598 32.7783 21.8592 36.3028 22.1196C38.2774 24.9494 40.0433 27.9166 41.6091 30.977C40.0619 34.0637 38.2841 37.0446 36.3228 39.901ZM44.2337 8.65403C47.8574 10.6805 46.2444 17.8778 45.4528 21.0075C43.0414 20.468 40.4227 20.0664 37.681 19.817C36.0838 17.612 34.429 15.6069 32.7678 13.8715C35.2035 11.5948 40.645 6.64735 44.2337 8.65403Z" fill="#53C1DE"/>
</svg>
