<svg width="30" height="30" viewBox="0 0 30 30" fill="none" xmlns="http://www.w3.org/2000/svg">
<path d="M16.25 5L18.441 10.5555C18.6759 11.151 18.7934 11.4488 18.9732 11.6999C19.1326 11.9225 19.3275 12.1174 19.5501 12.2768C19.8012 12.4566 20.099 12.5741 20.6945 12.809L26.25 15L20.6945 17.191C20.099 17.4259 19.8012 17.5434 19.5501 17.7232C19.3275 17.8826 19.1326 18.0775 18.9732 18.3001C18.7934 18.5512 18.6759 18.849 18.441 19.4445L16.25 25L14.059 19.4445C13.8241 18.849 13.7066 18.5512 13.5268 18.3001C13.3674 18.0775 13.1725 17.8826 12.9499 17.7232C12.6988 17.5434 12.401 17.4259 11.8055 17.191L6.25 15L11.8055 12.809C12.401 12.5741 12.6988 12.4566 12.9499 12.2768C13.1725 12.1174 13.3674 11.9225 13.5268 11.6999C13.7066 11.4488 13.8241 11.151 14.059 10.5555L16.25 5Z" fill="#FF8A56"/>
<path d="M6.25 20V25M7.5 5V10M8.75 22.5H3.75M10 7.5H5M16.25 5L18.441 10.5555C18.6759 11.151 18.7934 11.4488 18.9732 11.6999C19.1326 11.9225 19.3275 12.1174 19.5501 12.2768C19.8012 12.4566 20.099 12.5741 20.6945 12.809L26.25 15L20.6945 17.191C20.099 17.4259 19.8012 17.5434 19.5501 17.7232C19.3275 17.8826 19.1326 18.0775 18.9732 18.3001C18.7934 18.5512 18.6759 18.849 18.441 19.4445L16.25 25L14.059 19.4445C13.8241 18.849 13.7066 18.5512 13.5268 18.3001C13.3674 18.0775 13.1725 17.8826 12.9499 17.7232C12.6988 17.5434 12.401 17.4259 11.8055 17.191L6.25 15L11.8055 12.809C12.401 12.5741 12.6988 12.4566 12.9499 12.2768C13.1725 12.1174 13.3674 11.9225 13.5268 11.6999C13.7066 11.4488 13.8241 11.151 14.059 10.5555L16.25 5Z" stroke="#FF8A56" stroke-width="2" stroke-linecap="round" stroke-linejoin="round"/>
</svg>
